<svg xmlns="http://www.w3.org/2000/svg" width="109.363" height="27.937" viewBox="0 0 109.363 27.937">
  <g id="Group_178" data-name="Group 178" transform="translate(-9386.637 10722.936)">
    <g id="Group_176" data-name="Group 176">
      <path id="Path_1" data-name="Path 1" d="M285.237,219.115c1.911,0,3.218,1.207,3.587,3.352h-7.208C282.053,220.322,283.36,219.115,285.237,219.115Zm8.28,5.23c0-5.531-3.151-8.917-8.18-8.917-5.129,0-8.649,3.487-8.649,8.582,0,5.4,3.721,8.884,9.554,8.884a11.847,11.847,0,0,0,6.3-1.676.626.626,0,0,0,.235-.771L291.808,228a.679.679,0,0,0-1.039-.369,9.188,9.188,0,0,1-4.258,1.039c-2.749,0-4.626-1.24-4.962-3.118h11.3a.673.673,0,0,0,.67-.671Zm-27.959,4.291c-2.38,0-3.989-1.844-3.989-4.526,0-2.749,1.609-4.626,3.989-4.626,2.347,0,3.956,1.877,3.956,4.626C269.515,226.792,267.906,228.636,265.559,228.636Zm1.509-13.208a6.9,6.9,0,0,0-5.431,2.481v-5.464a.673.673,0,0,0-.67-.671h-3.554a.673.673,0,0,0-.671.671v19.41a.672.672,0,0,0,.671.67h3.554a.672.672,0,0,0,.67-.67v-1.542a6.8,6.8,0,0,0,5.464,2.581c4.425,0,7.576-3.587,7.576-8.783C274.677,218.947,271.526,215.427,267.067,215.427Zm-18.4,16.594c-1.609,4.056-4.224,6.235-7.576,6.235a9.168,9.168,0,0,1-1.676-.168.618.618,0,0,1-.469-.637V234.6a.708.708,0,0,1,.872-.7,5.433,5.433,0,0,0,.737.034c1.676,0,2.716-.738,3.017-2.145l-5.5-14.918a.728.728,0,0,1,.7-1.039H242.7a.614.614,0,0,1,.6.436l2.916,9.99,3.252-9.99a.614.614,0,0,1,.6-.436h3.855a.76.76,0,0,1,.7,1.073Zm-17.332-13.678a5.035,5.035,0,0,1,4.325-2.581c.335,0,.5.235.5.67v3.922a.673.673,0,0,1-.67.67h-1.643a2.32,2.32,0,0,0-2.514,2.648v8.18a.672.672,0,0,1-.671.67h-3.52a.672.672,0,0,1-.671-.67V216.466a.673.673,0,0,1,.671-.67h3.52a.673.673,0,0,1,.671.67Zm-11.5-5.9V215.8h3.956a.673.673,0,0,1,.671.67v2.783a.673.673,0,0,1-.671.67h-3.956v6.135c0,1.408.838,2.145,2.481,2.145a5.6,5.6,0,0,0,1.24-.134.726.726,0,0,1,.905.737v2.749a.643.643,0,0,1-.536.637,18.337,18.337,0,0,1-3.118.335c-3.587,0-5.867-1.978-5.867-5.029V212.444a.673.673,0,0,1,.671-.671h3.553A.673.673,0,0,1,219.833,212.444Z" transform="translate(9171.699 -10933.256)" fill="#111"/>
      <g id="Group_1" data-name="Group 1" transform="translate(9472.036 -10722.936)">
        <path id="Path_2" data-name="Path 2" d="M657.929,216.228H646.6a.98.98,0,0,1-.49-1.828l17-9.813a.98.98,0,0,1,1.338,1.338l-5.666,9.813A.98.98,0,0,1,657.929,216.228Z" transform="translate(-645.617 -204.449)" fill="#1eb720"/>
        <path id="Path_3" data-name="Path 3" d="M735.639,220.022V239.65a.98.98,0,0,1-1.828.49l-5.666-9.814a.979.979,0,0,1,0-.98l5.666-9.814A.98.98,0,0,1,735.639,220.022Z" transform="translate(-711.675 -216.148)" fill="#1eb720"/>
        <path id="Path_4" data-name="Path 4" d="M658.778,283.6l5.666,9.813a.98.98,0,0,1-1.338,1.338l-17-9.813a.98.98,0,0,1,.49-1.828h11.332A.98.98,0,0,1,658.778,283.6Z" transform="translate(-645.617 -267.516)" fill="#1eb720"/>
      </g>
    </g>
  </g>
</svg>
